<?xml version="1.0" standalone="no"?>
<!DOCTYPE svg PUBLIC "-//W3C//DTD SVG 20010904//EN"
 "http://www.w3.org/TR/2001/REC-SVG-20010904/DTD/svg10.dtd">
<svg version="1.0" xmlns="http://www.w3.org/2000/svg"
 width="365.000000pt" height="122.000000pt" viewBox="0 0 365.000000 122.000000"
 preserveAspectRatio="xMidYMid meet">

<g transform="translate(0.000000,122.000000) scale(0.100000,-0.100000)"
fill="#000000" stroke="none">
<path d="M2883 915 c-78 -17 -155 -58 -195 -104 -74 -84 -109 -231 -89 -368
32 -214 148 -316 376 -330 213 -13 360 71 417 235 42 124 28 316 -30 412 -83
136 -278 199 -479 155z m248 -115 c114 -33 171 -125 173 -275 1 -101 -18 -166
-65 -219 -54 -61 -114 -81 -239 -80 -203 1 -291 91 -291 294 0 133 39 217 121
261 69 36 211 45 301 19z"/>
<path d="M1900 902 c-127 -33 -207 -104 -246 -217 -22 -67 -30 -222 -14 -294
37 -167 138 -257 319 -283 205 -30 382 45 448 189 27 58 24 86 -9 104 -35 19
-61 3 -92 -56 -49 -95 -118 -128 -266 -128 -149 0 -225 37 -268 132 -49 107
-40 272 21 362 50 74 187 113 320 91 94 -16 154 -53 188 -115 14 -27 33 -55
42 -64 21 -21 65 -9 79 22 23 52 -63 180 -151 225 -98 49 -253 63 -371 32z"/>
</g>
</svg>
