<?xml version="1.0" standalone="no"?>
<!DOCTYPE svg PUBLIC "-//W3C//DTD SVG 20010904//EN"
 "http://www.w3.org/TR/2001/REC-SVG-20010904/DTD/svg10.dtd">
<svg version="1.0" xmlns="http://www.w3.org/2000/svg"
 width="1000.000000pt" height="650.000000pt" viewBox="0 0 1000.000000 650.000000"
 preserveAspectRatio="xMidYMid meet">

<g transform="translate(0.000000,650.000000) scale(0.100000,-0.100000)"
fill="#000000" stroke="none">
<path d="M0 3250 l0 -3250 5000 0 5000 0 0 3250 0 3250 -5000 0 -5000 0 0
-3250z m9980 0 l0 -3230 -4980 0 -4980 0 0 3230 0 3230 4980 0 4980 0 0 -3230z"/>
<path d="M4920 5897 c-240 -56 -368 -299 -280 -532 17 -45 40 -76 89 -126 87
-87 149 -112 277 -113 85 -1 95 1 166 37 311 153 291 595 -32 718 -64 24 -154
31 -220 16z"/>
<path d="M4008 5043 c2 -109 6 -201 10 -204 4 -4 183 -75 397 -159 215 -83
396 -154 403 -157 10 -4 12 19 10 108 l-3 113 -120 74 c-405 249 -673 412
-686 417 -12 4 -14 -23 -11 -192z"/>
<path d="M5578 4988 l-408 -251 0 -108 c0 -60 2 -109 5 -109 2 0 116 43 252
97 136 53 320 124 408 159 l160 62 3 201 c1 111 -1 201 -5 200 -5 0 -191 -113
-415 -251z"/>
<path d="M7255 5048 c45 -72 161 -318 200 -422 248 -671 209 -1414 -109 -2061
-328 -667 -916 -1160 -1627 -1364 -255 -73 -427 -96 -724 -96 -256 1 -360 11
-581 61 -369 82 -739 260 -1055 509 -101 80 -340 321 -421 426 -158 204 -316
489 -402 722 -212 577 -207 1235 14 1827 33 89 139 313 185 390 48 81 -11 2
-82 -110 -366 -576 -509 -1277 -397 -1950 77 -460 281 -916 580 -1290 91 -114
307 -329 424 -422 277 -220 633 -406 954 -498 290 -84 536 -114 856 -107 444
11 801 100 1190 297 785 400 1336 1150 1484 2020 41 238 46 603 12 840 -45
324 -161 670 -317 953 -52 93 -197 317 -206 317 -2 0 8 -19 22 -42z"/>
<path d="M5775 4591 l-600 -239 -3 -287 c-2 -271 -1 -287 15 -282 10 3 185 62
388 132 204 70 470 161 593 202 l222 76 0 318 c0 176 -3 319 -7 318 -5 0 -278
-107 -608 -238z"/>
<path d="M3035 4242 c-7 -7 -7 -1257 0 -1264 3 -3 88 24 188 61 101 36 501
181 890 321 389 140 707 257 707 260 0 3 -28 15 -62 27 -565 197 -1166 406
-1410 492 -169 59 -310 106 -313 103z"/>
<path d="M4690 2533 l0 -858 315 3 315 3 0 854 0 855 -315 0 -315 0 0 -857z"/>
<path d="M4130 3169 c-190 -70 -355 -133 -368 -138 l-22 -11 2 -501 3 -501
374 -154 c206 -85 376 -154 378 -154 1 0 3 358 3 795 0 630 -3 795 -12 794 -7
0 -168 -59 -358 -130z"/>
<path d="M5510 2506 c0 -438 2 -796 5 -796 2 0 167 66 367 146 199 81 368 149
375 151 11 4 13 105 11 511 l-3 507 -355 131 c-195 72 -365 135 -377 138 l-23
7 0 -795z"/>
</g>
</svg>
